<mxfile host="app.diagrams.net" modified="2022-06-09T12:52:05.751Z" agent="5.0 (Windows NT 10.0; Win64; x64) AppleWebKit/537.36 (KHTML, like Gecko) Chrome/98.0.4758.102 Safari/537.36" etag="TK21GLd6bc1e-q95c7ug" version="19.0.3" type="github">
  <diagram id="4t88_fFiXi7J0-hegkki" name="Page-1">
    <mxGraphModel dx="1422" dy="767" grid="1" gridSize="10" guides="1" tooltips="1" connect="1" arrows="1" fold="1" page="1" pageScale="1" pageWidth="827" pageHeight="1169" math="0" shadow="0">
      <root>
        <mxCell id="0" />
        <mxCell id="1" parent="0" />
        <mxCell id="tt2Qb8splpP75LV_5RI_-1" value="进出口货物收发货人或者其代理人" style="swimlane;" vertex="1" parent="1">
          <mxGeometry x="180" y="70" width="160" height="880" as="geometry" />
        </mxCell>
        <mxCell id="tt2Qb8splpP75LV_5RI_-6" value="" style="ellipse;html=1;shape=startState;fillColor=#000000;strokeColor=#ff0000;" vertex="1" parent="tt2Qb8splpP75LV_5RI_-1">
          <mxGeometry x="70" y="40" width="20" height="20" as="geometry" />
        </mxCell>
        <mxCell id="tt2Qb8splpP75LV_5RI_-7" value="" style="edgeStyle=orthogonalEdgeStyle;html=1;verticalAlign=bottom;endArrow=open;endSize=8;strokeColor=#ff0000;rounded=0;exitX=0.5;exitY=1;exitDx=0;exitDy=0;entryX=0.5;entryY=0;entryDx=0;entryDy=0;" edge="1" source="tt2Qb8splpP75LV_5RI_-6" parent="tt2Qb8splpP75LV_5RI_-1" target="tt2Qb8splpP75LV_5RI_-9">
          <mxGeometry relative="1" as="geometry">
            <mxPoint x="80" y="80" as="targetPoint" />
          </mxGeometry>
        </mxCell>
        <mxCell id="tt2Qb8splpP75LV_5RI_-9" value="报关" style="rounded=1;whiteSpace=wrap;html=1;" vertex="1" parent="tt2Qb8splpP75LV_5RI_-1">
          <mxGeometry x="50" y="85" width="60" height="30" as="geometry" />
        </mxCell>
        <mxCell id="tt2Qb8splpP75LV_5RI_-20" value="&lt;span style=&quot;font-size:12.0pt;mso-bidi-font-size:11.0pt;&lt;br/&gt;font-family:宋体;mso-ascii-font-family:Calibri;mso-hansi-font-family:Calibri;&lt;br/&gt;mso-bidi-font-family:&amp;quot;Times New Roman&amp;quot;;mso-ansi-language:EN-US;mso-fareast-language:&lt;br/&gt;ZH-CN;mso-bidi-language:AR-SA&quot;&gt;收到海关查验通知单&lt;/span&gt;" style="rounded=1;whiteSpace=wrap;html=1;" vertex="1" parent="tt2Qb8splpP75LV_5RI_-1">
          <mxGeometry x="35" y="162.5" width="90" height="30" as="geometry" />
        </mxCell>
        <mxCell id="tt2Qb8splpP75LV_5RI_-23" value="办理查验手续" style="rounded=1;whiteSpace=wrap;html=1;" vertex="1" parent="tt2Qb8splpP75LV_5RI_-1">
          <mxGeometry x="35" y="240" width="90" height="30" as="geometry" />
        </mxCell>
        <mxCell id="tt2Qb8splpP75LV_5RI_-24" value="" style="endArrow=classic;html=1;rounded=0;exitX=0.5;exitY=1;exitDx=0;exitDy=0;entryX=0.5;entryY=0;entryDx=0;entryDy=0;" edge="1" parent="tt2Qb8splpP75LV_5RI_-1" source="tt2Qb8splpP75LV_5RI_-20" target="tt2Qb8splpP75LV_5RI_-23">
          <mxGeometry width="50" height="50" relative="1" as="geometry">
            <mxPoint x="210" y="180" as="sourcePoint" />
            <mxPoint x="260" y="130" as="targetPoint" />
          </mxGeometry>
        </mxCell>
        <mxCell id="tt2Qb8splpP75LV_5RI_-30" value="&lt;span&gt;到场搬运货物等，回答查验人员的询问以及提供必要的资料&lt;/span&gt;" style="rounded=1;whiteSpace=wrap;html=1;" vertex="1" parent="tt2Qb8splpP75LV_5RI_-1">
          <mxGeometry x="32.5" y="320" width="95" height="60" as="geometry" />
        </mxCell>
        <mxCell id="tt2Qb8splpP75LV_5RI_-39" value="签名确认" style="rounded=1;whiteSpace=wrap;html=1;" vertex="1" parent="tt2Qb8splpP75LV_5RI_-1">
          <mxGeometry x="30" y="520" width="100" height="30" as="geometry" />
        </mxCell>
        <mxCell id="tt2Qb8splpP75LV_5RI_-45" value="&lt;span style=&quot;&quot;&gt;核对查验记录&lt;/span&gt;" style="rounded=1;whiteSpace=wrap;html=1;" vertex="1" parent="tt2Qb8splpP75LV_5RI_-1">
          <mxGeometry x="30" y="430" width="100" height="40" as="geometry" />
        </mxCell>
        <mxCell id="tt2Qb8splpP75LV_5RI_-2" value="海关" style="swimlane;" vertex="1" parent="1">
          <mxGeometry x="20" y="70" width="160" height="880" as="geometry" />
        </mxCell>
        <mxCell id="tt2Qb8splpP75LV_5RI_-15" value="&lt;span style=&quot;&quot;&gt;是否布控查验&lt;/span&gt;" style="rhombus;whiteSpace=wrap;html=1;" vertex="1" parent="tt2Qb8splpP75LV_5RI_-2">
          <mxGeometry x="30" y="157.5" width="100" height="40" as="geometry" />
        </mxCell>
        <mxCell id="tt2Qb8splpP75LV_5RI_-22" value="放行" style="rounded=1;whiteSpace=wrap;html=1;" vertex="1" parent="tt2Qb8splpP75LV_5RI_-2">
          <mxGeometry x="45" y="252.5" width="70" height="20" as="geometry" />
        </mxCell>
        <mxCell id="tt2Qb8splpP75LV_5RI_-40" value="&lt;span style=&quot;font-size:12.0pt;mso-bidi-font-size:11.0pt;&lt;br/&gt;font-family:宋体;mso-ascii-font-family:Calibri;mso-hansi-font-family:Calibri;&lt;br/&gt;mso-bidi-font-family:&amp;quot;Times New Roman&amp;quot;;mso-ansi-language:EN-US;mso-fareast-language:&lt;br/&gt;ZH-CN;mso-bidi-language:AR-SA&quot;&gt;提出复验要求&lt;/span&gt;" style="rounded=1;whiteSpace=wrap;html=1;" vertex="1" parent="tt2Qb8splpP75LV_5RI_-2">
          <mxGeometry x="35" y="430" width="85" height="40" as="geometry" />
        </mxCell>
        <mxCell id="tt2Qb8splpP75LV_5RI_-55" value="保存" style="rounded=1;whiteSpace=wrap;html=1;" vertex="1" parent="tt2Qb8splpP75LV_5RI_-2">
          <mxGeometry x="41.25" y="517.5" width="77.5" height="35" as="geometry" />
        </mxCell>
        <mxCell id="tt2Qb8splpP75LV_5RI_-57" value="&lt;p style=&quot;text-indent:24.0pt;mso-char-indent-count:2.0&quot; class=&quot;MsoNormal&quot;&gt;&lt;span style=&quot;font-size:12.0pt;mso-bidi-font-size:11.0pt;font-family:宋体;mso-ascii-font-family:&lt;br/&gt;Calibri;mso-hansi-font-family:Calibri&quot;&gt;实施查验时需要提取货样、化验，以进一步确定或者鉴别进出口货物的品名、规格等属性的，海关依照《中华人民共和国海关化验管理办法》等有关规定办理&lt;/span&gt;&lt;span style=&quot;font-size:12.0pt;mso-bidi-font-size:11.0pt&quot; lang=&quot;EN-US&quot;&gt;&lt;/span&gt;&lt;/p&gt;&lt;p style=&quot;text-indent:24.0pt;mso-char-indent-count:2.0&quot; class=&quot;MsoNormal&quot;&gt;&lt;br/&gt;&lt;br/&gt;&lt;/p&gt;&lt;p style=&quot;text-indent:24.0pt;mso-char-indent-count:2.0&quot; class=&quot;MsoNormal&quot;&gt;&lt;span style=&quot;font-size:12.0pt;mso-bidi-font-size:11.0pt&quot; lang=&quot;EN-US&quot;&gt;&amp;nbsp;&lt;/span&gt;&lt;/p&gt;" style="rounded=1;whiteSpace=wrap;html=1;" vertex="1" parent="tt2Qb8splpP75LV_5RI_-2">
          <mxGeometry x="30" y="590" width="102.5" height="230" as="geometry" />
        </mxCell>
        <mxCell id="tt2Qb8splpP75LV_5RI_-56" value="" style="endArrow=classic;html=1;rounded=0;exitX=0.5;exitY=1;exitDx=0;exitDy=0;" edge="1" parent="tt2Qb8splpP75LV_5RI_-2" source="tt2Qb8splpP75LV_5RI_-55" target="tt2Qb8splpP75LV_5RI_-57">
          <mxGeometry width="50" height="50" relative="1" as="geometry">
            <mxPoint x="370" y="460" as="sourcePoint" />
            <mxPoint x="80" y="610" as="targetPoint" />
          </mxGeometry>
        </mxCell>
        <mxCell id="tt2Qb8splpP75LV_5RI_-3" value="监管场所的经营人" style="swimlane;" vertex="1" parent="1">
          <mxGeometry x="500" y="70" width="150" height="880" as="geometry" />
        </mxCell>
        <mxCell id="tt2Qb8splpP75LV_5RI_-51" value="&lt;span style=&quot;font-size:12.0pt;mso-bidi-font-size:11.0pt;&lt;br/&gt;font-family:宋体;mso-ascii-font-family:Calibri;mso-hansi-font-family:Calibri;&lt;br/&gt;mso-bidi-font-family:&amp;quot;Times New Roman&amp;quot;;mso-ansi-language:EN-US;mso-fareast-language:&lt;br/&gt;ZH-CN;mso-bidi-language:AR-SA&quot;&gt;签名证明&lt;/span&gt;" style="rounded=1;whiteSpace=wrap;html=1;" vertex="1" parent="tt2Qb8splpP75LV_5RI_-3">
          <mxGeometry x="30" y="430" width="90" height="40" as="geometry" />
        </mxCell>
        <mxCell id="tt2Qb8splpP75LV_5RI_-4" value="查验人员" style="swimlane;" vertex="1" parent="1">
          <mxGeometry x="340" y="70" width="160" height="880" as="geometry" />
        </mxCell>
        <mxCell id="tt2Qb8splpP75LV_5RI_-25" value="查验货物" style="rounded=1;whiteSpace=wrap;html=1;" vertex="1" parent="tt2Qb8splpP75LV_5RI_-4">
          <mxGeometry x="35" y="240" width="90" height="30" as="geometry" />
        </mxCell>
        <mxCell id="tt2Qb8splpP75LV_5RI_-32" value="&lt;span style=&quot;font-size:12.0pt;mso-bidi-font-size:11.0pt;&lt;br/&gt;font-family:宋体;mso-ascii-font-family:Calibri;mso-hansi-font-family:Calibri;&lt;br/&gt;mso-bidi-font-family:&amp;quot;Times New Roman&amp;quot;;mso-ansi-language:EN-US;mso-fareast-language:&lt;br/&gt;ZH-CN;mso-bidi-language:AR-SA&quot;&gt;填写查验记录并签名&lt;/span&gt;" style="rounded=1;whiteSpace=wrap;html=1;" vertex="1" parent="tt2Qb8splpP75LV_5RI_-4">
          <mxGeometry x="35" y="330" width="90" height="40" as="geometry" />
        </mxCell>
        <mxCell id="tt2Qb8splpP75LV_5RI_-48" value="&lt;span style=&quot;font-size:12.0pt;mso-bidi-font-size:11.0pt;&lt;br/&gt;font-family:宋体;mso-ascii-font-family:Calibri;mso-hansi-font-family:Calibri;&lt;br/&gt;mso-bidi-font-family:&amp;quot;Times New Roman&amp;quot;;mso-ansi-language:EN-US;mso-fareast-language:&lt;br/&gt;ZH-CN;mso-bidi-language:AR-SA&quot;&gt;在查验记录中注明&lt;/span&gt;" style="rounded=1;whiteSpace=wrap;html=1;" vertex="1" parent="tt2Qb8splpP75LV_5RI_-4">
          <mxGeometry x="40" y="430" width="90" height="40" as="geometry" />
        </mxCell>
        <mxCell id="tt2Qb8splpP75LV_5RI_-13" value="" style="endArrow=classic;html=1;rounded=0;exitX=0;exitY=0.5;exitDx=0;exitDy=0;entryX=0.5;entryY=0;entryDx=0;entryDy=0;" edge="1" parent="1" source="tt2Qb8splpP75LV_5RI_-9" target="tt2Qb8splpP75LV_5RI_-15">
          <mxGeometry width="50" height="50" relative="1" as="geometry">
            <mxPoint x="390" y="245" as="sourcePoint" />
            <mxPoint x="130" y="110" as="targetPoint" />
            <Array as="points">
              <mxPoint x="100" y="170" />
            </Array>
          </mxGeometry>
        </mxCell>
        <mxCell id="tt2Qb8splpP75LV_5RI_-16" value="否" style="endArrow=classic;html=1;rounded=0;exitX=0.5;exitY=1;exitDx=0;exitDy=0;" edge="1" parent="1" source="tt2Qb8splpP75LV_5RI_-15">
          <mxGeometry width="50" height="50" relative="1" as="geometry">
            <mxPoint x="390" y="322.5" as="sourcePoint" />
            <mxPoint x="100" y="322.5" as="targetPoint" />
          </mxGeometry>
        </mxCell>
        <mxCell id="tt2Qb8splpP75LV_5RI_-17" value="" style="endArrow=classic;html=1;rounded=0;exitX=1;exitY=0.5;exitDx=0;exitDy=0;entryX=0;entryY=0.5;entryDx=0;entryDy=0;" edge="1" parent="1" source="tt2Qb8splpP75LV_5RI_-15" target="tt2Qb8splpP75LV_5RI_-20">
          <mxGeometry width="50" height="50" relative="1" as="geometry">
            <mxPoint x="390" y="245" as="sourcePoint" />
            <mxPoint x="250" y="245" as="targetPoint" />
          </mxGeometry>
        </mxCell>
        <mxCell id="tt2Qb8splpP75LV_5RI_-19" value="是" style="edgeLabel;html=1;align=center;verticalAlign=middle;resizable=0;points=[];" vertex="1" connectable="0" parent="tt2Qb8splpP75LV_5RI_-17">
          <mxGeometry x="-0.438" y="-1" relative="1" as="geometry">
            <mxPoint as="offset" />
          </mxGeometry>
        </mxCell>
        <mxCell id="tt2Qb8splpP75LV_5RI_-26" value="" style="endArrow=classic;html=1;rounded=0;exitX=1;exitY=0.5;exitDx=0;exitDy=0;entryX=0;entryY=0.5;entryDx=0;entryDy=0;" edge="1" parent="1" source="tt2Qb8splpP75LV_5RI_-23" target="tt2Qb8splpP75LV_5RI_-25">
          <mxGeometry width="50" height="50" relative="1" as="geometry">
            <mxPoint x="390" y="350" as="sourcePoint" />
            <mxPoint x="440" y="300" as="targetPoint" />
          </mxGeometry>
        </mxCell>
        <mxCell id="tt2Qb8splpP75LV_5RI_-28" value="" style="edgeStyle=segmentEdgeStyle;endArrow=classic;html=1;rounded=0;exitX=0.5;exitY=1;exitDx=0;exitDy=0;" edge="1" parent="1" source="tt2Qb8splpP75LV_5RI_-25">
          <mxGeometry width="50" height="50" relative="1" as="geometry">
            <mxPoint x="390" y="350" as="sourcePoint" />
            <mxPoint x="260" y="390" as="targetPoint" />
            <Array as="points">
              <mxPoint x="420" y="370" />
              <mxPoint x="260" y="370" />
              <mxPoint x="260" y="390" />
            </Array>
          </mxGeometry>
        </mxCell>
        <mxCell id="tt2Qb8splpP75LV_5RI_-31" value="" style="endArrow=classic;html=1;rounded=0;exitX=1;exitY=0.5;exitDx=0;exitDy=0;" edge="1" parent="1" source="tt2Qb8splpP75LV_5RI_-30" target="tt2Qb8splpP75LV_5RI_-32">
          <mxGeometry width="50" height="50" relative="1" as="geometry">
            <mxPoint x="390" y="340" as="sourcePoint" />
            <mxPoint x="380" y="420" as="targetPoint" />
          </mxGeometry>
        </mxCell>
        <mxCell id="tt2Qb8splpP75LV_5RI_-33" value="查验结束" style="edgeLabel;html=1;align=center;verticalAlign=middle;resizable=0;points=[];" vertex="1" connectable="0" parent="tt2Qb8splpP75LV_5RI_-31">
          <mxGeometry x="-0.3096" y="1" relative="1" as="geometry">
            <mxPoint x="10" y="1" as="offset" />
          </mxGeometry>
        </mxCell>
        <mxCell id="tt2Qb8splpP75LV_5RI_-34" value="" style="endArrow=classic;html=1;rounded=0;exitX=0.5;exitY=1;exitDx=0;exitDy=0;" edge="1" parent="1" source="tt2Qb8splpP75LV_5RI_-32">
          <mxGeometry width="50" height="50" relative="1" as="geometry">
            <mxPoint x="390" y="630" as="sourcePoint" />
            <mxPoint x="260" y="500" as="targetPoint" />
            <Array as="points">
              <mxPoint x="420" y="470" />
              <mxPoint x="260" y="470" />
            </Array>
          </mxGeometry>
        </mxCell>
        <mxCell id="tt2Qb8splpP75LV_5RI_-36" value="" style="endArrow=classic;html=1;rounded=0;" edge="1" parent="1">
          <mxGeometry width="50" height="50" relative="1" as="geometry">
            <mxPoint x="260" y="540" as="sourcePoint" />
            <mxPoint x="260" y="590" as="targetPoint" />
            <Array as="points">
              <mxPoint x="260" y="560" />
            </Array>
          </mxGeometry>
        </mxCell>
        <mxCell id="tt2Qb8splpP75LV_5RI_-37" value="无误" style="edgeLabel;html=1;align=center;verticalAlign=middle;resizable=0;points=[];" vertex="1" connectable="0" parent="tt2Qb8splpP75LV_5RI_-36">
          <mxGeometry x="-0.09" y="3" relative="1" as="geometry">
            <mxPoint x="-3" as="offset" />
          </mxGeometry>
        </mxCell>
        <mxCell id="tt2Qb8splpP75LV_5RI_-41" value="" style="endArrow=classic;html=1;rounded=0;entryX=1;entryY=0.5;entryDx=0;entryDy=0;exitX=0;exitY=0.5;exitDx=0;exitDy=0;" edge="1" parent="1" target="tt2Qb8splpP75LV_5RI_-40">
          <mxGeometry width="50" height="50" relative="1" as="geometry">
            <mxPoint x="210" y="520" as="sourcePoint" />
            <mxPoint x="440" y="580" as="targetPoint" />
          </mxGeometry>
        </mxCell>
        <mxCell id="tt2Qb8splpP75LV_5RI_-43" value="有异议" style="edgeLabel;html=1;align=center;verticalAlign=middle;resizable=0;points=[];" vertex="1" connectable="0" parent="tt2Qb8splpP75LV_5RI_-41">
          <mxGeometry x="0.2204" relative="1" as="geometry">
            <mxPoint x="13" as="offset" />
          </mxGeometry>
        </mxCell>
        <mxCell id="tt2Qb8splpP75LV_5RI_-46" value="" style="endArrow=classic;html=1;rounded=0;exitX=1;exitY=0.5;exitDx=0;exitDy=0;" edge="1" parent="1" source="tt2Qb8splpP75LV_5RI_-45">
          <mxGeometry width="50" height="50" relative="1" as="geometry">
            <mxPoint x="360" y="580" as="sourcePoint" />
            <mxPoint x="380" y="520" as="targetPoint" />
          </mxGeometry>
        </mxCell>
        <mxCell id="tt2Qb8splpP75LV_5RI_-47" value="拒不签名" style="edgeLabel;html=1;align=center;verticalAlign=middle;resizable=0;points=[];" vertex="1" connectable="0" parent="tt2Qb8splpP75LV_5RI_-46">
          <mxGeometry x="-0.2945" relative="1" as="geometry">
            <mxPoint x="2" as="offset" />
          </mxGeometry>
        </mxCell>
        <mxCell id="tt2Qb8splpP75LV_5RI_-52" value="" style="endArrow=classic;html=1;rounded=0;exitX=1;exitY=0.5;exitDx=0;exitDy=0;entryX=0;entryY=0.5;entryDx=0;entryDy=0;" edge="1" parent="1" source="tt2Qb8splpP75LV_5RI_-48" target="tt2Qb8splpP75LV_5RI_-51">
          <mxGeometry width="50" height="50" relative="1" as="geometry">
            <mxPoint x="390" y="530" as="sourcePoint" />
            <mxPoint x="440" y="480" as="targetPoint" />
          </mxGeometry>
        </mxCell>
        <mxCell id="tt2Qb8splpP75LV_5RI_-54" value="" style="endArrow=classic;html=1;rounded=0;exitX=0;exitY=0.5;exitDx=0;exitDy=0;" edge="1" parent="1" source="tt2Qb8splpP75LV_5RI_-39" target="tt2Qb8splpP75LV_5RI_-55">
          <mxGeometry width="50" height="50" relative="1" as="geometry">
            <mxPoint x="390" y="530" as="sourcePoint" />
            <mxPoint x="140" y="605" as="targetPoint" />
          </mxGeometry>
        </mxCell>
      </root>
    </mxGraphModel>
  </diagram>
</mxfile>
